<?xml version="1.0" encoding="UTF-8" standalone="no"?>
<svg
   width="1024px"
   height="1024px"
   viewBox="0 0 1024 1024"
   class="icon"
   version="1.1"
   id="svg8"
   sodipodi:docname="cloud-server-svgrepo-com.svg"
   inkscape:version="1.1.1 (3bf5ae0d25, 2021-09-20, custom)"
   xmlns:inkscape="http://www.inkscape.org/namespaces/inkscape"
   xmlns:sodipodi="http://sodipodi.sourceforge.net/DTD/sodipodi-0.dtd"
   xmlns="http://www.w3.org/2000/svg"
   xmlns:svg="http://www.w3.org/2000/svg">
  <defs
     id="defs12" />
  <sodipodi:namedview
     id="namedview10"
     pagecolor="#ffffff"
     bordercolor="#666666"
     borderopacity="1.0"
     inkscape:pageshadow="2"
     inkscape:pageopacity="0.0"
     inkscape:pagecheckerboard="0"
     showgrid="false"
     inkscape:zoom="0.9474126"
     inkscape:cx="747.82624"
     inkscape:cy="1061.3116"
     inkscape:window-width="1916"
     inkscape:window-height="1046"
     inkscape:window-x="0"
     inkscape:window-y="0"
     inkscape:window-maximized="1"
     inkscape:current-layer="svg8" />
  <path
     d="M704 446H320c-4.4 0-8 3.6-8 8v402c0 4.4 3.6 8 8 8h384c4.4 0 8-3.6 8-8V454c0-4.4-3.6-8-8-8zm-328 64h272v117H376V510zm272 290H376V683h272v117z"
     id="path2" />
  <path
     d="M424 748a32 32 0 1 0 64 0 32 32 0 1 0-64 0zm0-178a32 32 0 1 0 64 0 32 32 0 1 0-64 0z"
     id="path4" />
  <path
     d="M811.4 368.9C765.6 248 648.9 162 512.2 162S258.8 247.9 213 368.8C126.9 391.5 63.5 470.2 64 563.6 64.6 668 145.6 752.9 247.6 762c4.7.4 8.7-3.3 8.7-8v-60.4c0-4-3-7.4-7-7.9-27-3.4-52.5-15.2-72.1-34.5-24-23.5-37.2-55.1-37.2-88.6 0-28 9.1-54.4 26.2-76.4 16.7-21.4 40.2-36.9 66.1-43.7l37.9-10 13.9-36.7c8.6-22.8 20.6-44.2 35.7-63.5 14.9-19.2 32.6-36 52.4-50 41.1-28.9 89.5-44.2 140-44.2s98.9 15.3 140 44.3c19.9 14 37.5 30.8 52.4 50 15.1 19.3 27.1 40.7 35.7 63.5l13.8 36.6 37.8 10c54.2 14.4 92.1 63.7 92.1 120 0 33.6-13.2 65.1-37.2 88.6-19.5 19.2-44.9 31.1-71.9 34.5-4 .5-6.9 3.9-6.9 7.9V754c0 4.7 4.1 8.4 8.8 8 101.7-9.2 182.5-94 183.2-198.2.6-93.4-62.7-172.1-148.6-194.9z"
     id="path6" />
  <path
     style="fill:#b3b3b3;stroke-width:1.49271"
     d="M 232.11662,759.10822 C 176.44818,748.95829 129.64395,718.59172 98.475321,672.40182 64.932805,622.69395 56.061922,559.02442 74.610907,501.1183 90.637409,451.08684 129.27454,406.66739 176.8863,383.53666 c 8.20991,-3.98854 19.84273,-8.8303 25.8507,-10.75946 l 10.92359,-3.50759 6.33815,-14.83889 c 39.79733,-93.17341 128.07217,-164.75136 228.05746,-184.92117 81.22383,-16.3851 162.0647,-1.85419 232.67292,41.82227 55.29176,34.20208 103.18265,90.91781 126.61556,149.94699 l 3.27604,8.25256 10.78293,3.37558 c 31.39985,9.82963 63.59534,30.92054 87.08569,57.04886 48.0263,53.41966 63.18986,130.01286 39.20119,198.01056 -24.30522,68.89501 -84.86341,119.44829 -157.20883,131.23613 -22.8836,3.72861 -21.73534,5.56812 -21.73534,-34.82062 0,-17.97761 0.63883,-33.15374 1.46018,-34.68846 1.00676,-1.88113 4.5089,-3.2593 11.27772,-4.43804 22.18674,-3.86366 46.05303,-15.5877 63.67144,-31.27785 15.61536,-13.90636 29.53953,-37.53272 35.72912,-60.62476 4.84425,-18.07287 4.49897,-46.06758 -0.78773,-63.87061 -11.14696,-37.53744 -35.72739,-66.32642 -69.36535,-81.24174 -4.61965,-2.04839 -19.07922,-6.57296 -32.13237,-10.05461 -23.55721,-6.28337 -23.74738,-6.36791 -25.67599,-11.41255 C 738.6052,389.3214 731.74491,373.22728 725.30563,361.98251 696.30577,311.34063 650.1164,271.91427 597.03587,252.49387 c -88.02473,-32.20529 -185.58139,-12.0387 -252.95941,52.29094 -29.7582,28.41186 -46.89615,55.30439 -64.88808,101.82105 l -9.75398,25.2181 -23.89844,6.36246 c -27.08694,7.21134 -36.7708,11.10937 -50.25196,20.22787 -26.40382,17.85922 -44.74245,44.19821 -52.89886,75.97638 -3.72315,14.50575 -3.37417,43.54526 0.70858,58.9621 12.65361,47.78123 50.70842,83.10454 98.93991,91.83819 5.21853,0.94496 10.32789,2.41316 11.35413,3.26267 1.39078,1.15129 1.86588,10.0228 1.86588,34.84119 0,41.77635 1.00821,40.21576 -23.13702,35.8134 z"
     id="path123" />
  <path
     style="fill:#b3b3b3;stroke-width:1.49271"
     d="m 315.26064,860.99592 c -1.3758,-1.3758 -1.79125,-49.31415 -1.79125,-206.68801 0,-201.04769 0.0542,-204.92578 2.88729,-206.44198 4.02196,-2.15249 387.26468,-2.15249 391.28664,0 2.83305,1.5162 2.88729,5.39429 2.88729,206.44198 0,157.37386 -0.41545,205.31221 -1.79125,206.68801 -2.60227,2.60227 -390.87644,2.60227 -393.47872,0 z M 649.32945,741.1312 V 682.1691 H 512 374.67055 v 58.9621 58.96209 H 512 649.32945 Z m 0,-172.40817 V 509.01458 H 512 374.67055 v 59.70845 59.70846 H 512 649.32945 Z"
     id="path162" />
  <path
     style="fill:#b3b3b3;stroke-width:1.49271"
     d="m 445.61879,599.18277 c -7.28507,-2.66695 -13.53615,-8.43618 -17.5053,-16.15597 -4.39571,-8.54942 -3.32068,-22.27567 2.39001,-30.51619 5.13504,-7.40987 16.81069,-13.65577 25.43973,-13.60902 7.41267,0.0402 16.54987,4.06646 22.30657,9.82938 12.4165,12.42991 11.07532,33.52443 -2.86189,45.01266 -9.17393,7.56192 -19.04425,9.36534 -29.76912,5.43914 z"
     id="path201" />
  <path
     style="fill:#b3b3b3;stroke-width:1.49271"
     d="m 444.08163,776.35941 c -6.98018,-3.23868 -14.8218,-11.06425 -17.07462,-17.03968 -2.52235,-6.6903 -1.89862,-18.43764 1.31321,-24.73335 5.27434,-10.33856 17.12589,-18.06827 27.7031,-18.06827 15.99944,0 30.60059,14.87459 30.60059,31.17364 0,9.31906 -1.50789,13.29706 -7.72394,20.37675 -9.26236,10.54925 -22.93443,13.80482 -34.81834,8.29091 z"
     id="path240" />
  <path
     style="fill:#b3b3b3;stroke-width:1.49271"
     d="m 372.97232,861.78665 c -44.99994,-0.43497 -55.00176,-0.90489 -56.45202,-2.65234 -1.33518,-1.6088 -1.77395,-50.97021 -1.80964,-203.58348 -0.0259,-110.80288 0.36728,-202.76543 0.87377,-204.36124 0.8951,-2.82019 3.65846,-2.93105 98.66823,-3.95831 53.76103,-0.58127 141.71405,-0.58148 195.45114,-4.7e-4 86.44151,0.93462 97.80664,1.32439 98.59597,3.38137 0.4907,1.27874 0.88658,93.31268 0.87973,204.51985 -0.0104,163.36738 -0.38315,202.56291 -1.94291,204.11139 -1.53527,1.52419 -30.34939,2.03479 -140.75262,2.4942 -76.35219,0.31771 -163.43243,0.33978 -193.51165,0.049 z M 649.32945,741.1312 V 682.1691 H 512 374.67055 v 58.9621 58.96209 H 512 649.32945 Z m 0,-172.40817 V 509.01458 H 512 374.67055 v 59.70845 59.70846 H 512 649.32945 Z"
     id="path279" />
  <path
     style="fill:#b3b3b3;stroke-width:1.49271"
     d="m 372.22578,861.78694 c -44.47009,-0.4364 -54.25425,-0.90402 -55.71385,-2.66272 -1.34562,-1.62138 -1.78477,-50.46384 -1.82988,-203.51894 -0.0326,-110.76205 0.36425,-202.72017 0.88196,-204.35135 0.92205,-2.90511 2.94126,-2.98742 98.68865,-4.02265 53.76103,-0.58127 141.71405,-0.58148 195.45114,-4.7e-4 86.79971,0.93849 97.80421,1.31807 98.60357,3.40116 0.49488,1.28962 0.89224,93.32208 0.88301,204.51656 -0.0134,163.52033 -0.38645,202.53915 -1.95049,204.09333 -1.54077,1.53103 -30.29822,2.03869 -141.50228,2.498 -76.76268,0.31703 -163.84301,0.33823 -193.51183,0.047 z M 649.32945,741.1312 V 682.1691 H 512 374.67055 v 58.9621 58.96209 H 512 649.32945 Z m 0,-172.40817 V 509.01458 H 512 374.67055 v 59.70845 59.70846 H 512 649.32945 Z"
     id="path318" />
  <path
     style="fill:#b3b3b3;stroke-width:1.49271"
     d="m 372.22578,861.78753 c -44.50054,-0.43718 -54.25363,-0.90385 -55.716,-2.6659 -1.34832,-1.62463 -1.78971,-50.33358 -1.84384,-203.47492 -0.0391,-110.73644 0.35871,-202.69339 0.88411,-204.34878 0.94048,-2.96319 2.46883,-3.02616 98.70261,-4.06665 53.76103,-0.58127 141.71405,-0.58148 195.45114,-4.7e-4 87.34042,0.94434 97.80067,1.30834 98.61715,3.43174 0.50236,1.30644 0.90208,93.33653 0.88828,204.51131 -0.0203,163.76187 -0.39319,202.5026 -1.96409,204.06726 -1.55018,1.54401 -29.92761,2.04612 -141.50753,2.50384 -76.76268,0.3149 -163.84301,0.33405 -193.51183,0.0425 z M 649.32945,741.1312 V 682.1691 H 512 374.67055 v 58.9621 58.96209 H 512 649.32945 Z m 0,-172.40817 V 509.01458 H 512 374.67055 v 59.70845 59.70846 H 512 649.32945 Z"
     id="path357" />
  <path
     style="fill:#b3b3b3;stroke-width:1.49271"
     d="m 372.22578,861.78753 c -44.59812,-0.43814 -54.2516,-0.9014 -55.72278,-2.67407 -1.35726,-1.6354 -1.79715,-49.90554 -1.854,-203.44295 -0.041,-110.71434 0.36392,-202.68024 0.8998,-204.36864 0.96543,-3.0418 1.86694,-3.0799 98.71276,-4.17277 53.75615,-0.60662 141.7003,-0.60685 195.43146,-5.2e-4 87.7881,0.99066 97.78689,1.34611 98.61901,3.50588 0.50929,1.32189 0.91659,93.3619 0.9051,204.53335 -0.017,164.08411 -0.38698,202.49456 -1.96594,204.06726 -1.55817,1.55199 -29.70713,2.05124 -141.51358,2.50989 -76.76268,0.3149 -163.84301,0.33405 -193.51183,0.0425 z M 649.32945,741.1312 V 682.1691 H 512 374.67055 v 58.9621 58.96209 H 512 649.32945 Z m 0,-172.40817 V 509.01458 H 512 374.67055 v 59.70845 59.70846 H 512 649.32945 Z"
     id="path433" />
  <path
     style="fill:#b3b3b3;stroke-width:1.49271"
     d="m 364.01347,861.78974 c -37.4946,-0.44102 -46.05706,-0.92503 -47.51865,-2.68613 -1.36173,-1.64079 -1.80007,-49.68969 -1.85581,-203.42677 -0.0401,-110.70321 0.37089,-202.67705 0.91338,-204.3863 0.98127,-3.0917 1.4902,-3.11345 98.71698,-4.21829 53.75185,-0.6108 141.68823,-0.61104 195.4142,-5.3e-4 88.19031,1.00215 97.77471,1.34599 98.62151,3.5381 0.51589,1.33545 0.93078,93.38319 0.92201,204.55054 -0.0134,165.33885 -0.3743,202.48081 -1.985,204.0915 -1.59615,1.59616 -29.95207,2.07386 -149.73093,2.52245 -81.26905,0.30436 -168.343,0.3113 -193.49769,0.0154 z M 649.32945,741.1312 V 682.1691 H 512 374.67055 v 58.9621 58.96209 H 512 649.32945 Z m 0,-172.40817 V 509.01458 H 512 374.67055 v 59.70845 59.70846 H 512 649.32945 Z"
     id="path509" />
  <path
     style="fill:#b3b3b3;stroke-width:1.49271"
     d="m 356.54697,861.791 c -27.98032,-0.39935 -38.67667,-1.04147 -39.76785,-2.3873 -2.7012,-3.33158 -3.22664,-405.56391 -0.53534,-409.80723 1.00034,-1.57722 29.80851,-2.032 151.11416,-2.38556 82.43302,-0.24027 170.15856,-0.18384 194.94565,0.1254 43.78973,0.5463 45.09482,0.6485 46.03308,3.60472 0.53111,1.67336 0.95251,93.77744 0.93647,204.67573 -0.0242,166.99415 -0.37449,201.97855 -2.03914,203.64319 -1.65204,1.65205 -29.64533,2.10498 -157.21089,2.54363 -85.36053,0.29354 -172.42479,0.28787 -193.47614,-0.0119 z M 649.32945,741.1312 V 682.1691 H 512 374.67055 v 58.9621 58.96209 H 512 649.32945 Z m 0,-172.40817 V 509.01458 H 512 374.67055 v 59.70845 59.70846 H 512 649.32945 Z"
     id="path548" />
  <path
     style="fill:#b3b3b3;stroke-width:1.49271"
     d="m 351.31978,861.79164 c -24.90149,-0.41695 -33.45413,-1.03629 -34.67823,-2.51124 -2.82234,-3.40071 -2.94761,-407.72226 -0.12719,-410.5339 1.58464,-1.57972 226.1535,-2.83123 307.76796,-1.71519 80.86513,1.10581 83.20031,1.21886 84.10579,4.07177 0.51224,1.6139 0.91528,93.65626 0.89567,204.53856 -0.0297,167.87757 -0.375,201.94355 -2.06417,203.6327 -1.67779,1.67781 -29.76154,2.11861 -162.43747,2.54963 -88.22493,0.28662 -175.28299,0.27206 -193.46236,-0.0324 z M 649.32945,741.1312 V 682.1691 H 512 374.67055 v 58.9621 58.96209 H 512 649.32945 Z m 0,-172.40817 V 509.01458 H 512 374.67055 v 59.70845 59.70846 H 512 649.32945 Z"
     id="path587" />
  <path
     style="fill:#b3b3b3;stroke-width:1.05551"
     d="m 335.47177,861.38826 c -10.25784,-0.34257 -19.04493,-1.01833 -19.52687,-1.5017 -1.97241,-1.97825 -2.68583,-382.40715 -0.75884,-404.64653 l 0.56702,-6.54399 4.93531,-0.80958 c 6.54585,-1.07377 376.10521,-1.09069 382.48647,-0.0175 4.9151,0.82661 4.96464,0.87603 5.80528,5.79114 1.07042,6.25866 1.02692,394.8095 -0.045,401.47043 -0.49154,3.05458 -1.47292,5.22354 -2.58823,5.72026 -2.12753,0.94755 -343.77008,1.44266 -370.87519,0.53748 z M 649.13639,740.96545 V 681.85709 H 511.92057 374.70475 v 59.10836 59.10835 h 137.21582 137.21582 z m 0,-172.57529 V 508.75405 H 511.92057 374.70475 v 59.63611 59.63611 h 137.21582 137.21582 z"
     id="path626" />
  <path
     style="fill:#b3b3b3;stroke-width:1.05551"
     d="m 334.9439,861.39967 c -9.96762,-0.34884 -18.51723,-1.02978 -18.99911,-1.51319 -1.87294,-1.87887 -2.59809,-387.06848 -0.76277,-405.17712 l 0.61004,-6.01916 4.91582,-0.81557 c 6.50231,-1.07878 376.06881,-1.08613 382.46698,-0.008 4.9147,0.82845 4.96471,0.87836 5.80528,5.79307 1.07112,6.26274 1.02862,394.81415 -0.0439,401.47043 -0.49268,3.05765 -1.47284,5.22111 -2.58927,5.71519 -2.15071,0.95178 -345.40684,1.46376 -371.40306,0.55396 z M 649.13639,740.96545 V 681.85709 H 511.92057 374.70475 v 59.10836 59.10835 h 137.21582 137.21582 z m 0,-172.57529 V 508.75405 H 511.92057 374.70475 v 59.63611 59.63611 h 137.21582 137.21582 z"
     id="path665" />
  <path
     style="fill:#b3b3b3;stroke-width:1.05551"
     d="m 334.41604,861.40149 c -9.67743,-0.34984 -17.96578,-1.00813 -18.41857,-1.46286 -1.01189,-1.01627 -1.30613,-17.78854 -1.97606,-112.64015 -1.50645,-213.2895 -1.78219,-292.49517 -1.02766,-295.19543 l 0.83411,-2.98511 0.75939,3.16652 0.75938,3.16652 0.12488,-3.36572 c 0.11758,-3.16879 0.41824,-3.41455 5.13854,-4.20019 6.52059,-1.08528 376.07549,-1.10939 382.51052,-0.025 3.72585,0.62789 5.08118,1.38496 5.6447,3.15307 1.12884,3.54191 1.80487,281.33561 0.84868,348.74511 -0.65711,46.32518 -1.1416,59.62049 -2.21159,60.6896 -1.11081,1.10988 -34.87286,1.38988 -178.38057,1.47934 -97.35573,0.0607 -184.92832,-0.17589 -194.60575,-0.52574 z M 649.13639,740.96545 V 681.85709 H 511.92057 374.70475 v 59.10836 59.10835 h 137.21582 137.21582 z m 0,-172.57529 V 508.75405 H 511.92057 374.70475 v 59.63611 59.63611 H 511.92057 649.13639 Z M 314.27618,490.09088 c -0.16759,-13.24666 -0.30489,-2.71083 -0.30512,23.41295 -2.3e-4,26.12378 0.13688,36.96196 0.3047,24.08484 0.16782,-12.87712 0.16801,-34.25112 4.2e-4,-47.49779 z m -0.0698,-33.25455 c -0.33694,-0.84201 -0.58705,-0.5919 -0.6377,0.63771 -0.0458,1.11268 0.20364,1.73608 0.55437,1.38535 0.35074,-0.35074 0.38824,-1.26111 0.0833,-2.02306 z"
     id="path704" />
  <path
     style="fill:#b3b3b3;stroke-width:1.05551"
     d="m 335.12326,861.65446 c -19.97476,-0.4691 -19.07848,-0.13406 -19.98157,-7.46909 -1.19705,-9.72272 -1.74983,-401.55554 -0.56546,-400.82356 0.56109,0.34678 1.02016,-0.56346 1.02016,-2.02273 0,-2.2151 0.65362,-2.78995 3.95815,-3.48114 5.10551,-1.0679 379.52889,-1.08914 384.61575,-0.0218 2.63495,0.55286 4.07752,1.54398 4.59204,3.15497 1.12754,3.5304 1.8132,287.49709 0.84976,351.93373 -0.65426,43.75937 -1.14232,56.45656 -2.2111,57.52445 -1.11286,1.11192 -34.9535,1.38751 -179.43608,1.46129 -97.93551,0.05 -184.71425,-0.0652 -192.84165,-0.2561 z M 649.13639,740.96545 V 681.85709 H 511.92057 374.70475 v 59.10836 59.10835 h 137.21582 137.21582 z m 0,-172.57529 V 508.75405 H 511.92057 374.70475 v 59.63611 59.63611 h 137.21582 137.21582 z"
     id="path965" />
  <path
     style="fill:#b3b3b3;stroke-width:1.05551"
     d="m 332.30454,861.40633 c -8.51663,-0.3525 -15.87879,-1.03629 -16.36034,-1.51951 -0.48156,-0.48323 -1.13963,-28.9819 -1.46238,-63.33038 -0.89236,-94.96781 -0.70203,-343.74422 0.26298,-343.74422 0.46838,0 0.85159,-0.92844 0.85159,-2.06319 0,-1.53327 1.01663,-2.27582 3.95815,-2.89109 5.10551,-1.0679 379.52889,-1.08914 384.61575,-0.0218 2.63367,0.55259 4.07849,1.54477 4.59433,3.15497 1.12591,3.51458 1.81954,292.93039 0.84979,354.57249 -0.65451,41.60382 -1.14733,53.82048 -2.21407,54.88633 -1.11359,1.11266 -35.12399,1.39233 -180.49158,1.48417 -98.51568,0.0623 -186.08758,-0.17524 -194.60422,-0.52775 z M 649.13639,740.96545 V 681.85709 H 511.92057 374.70475 v 59.10836 59.10835 h 137.21582 137.21582 z m 0,-172.57529 V 508.75405 H 511.92057 374.70475 v 59.63611 59.63611 h 137.21582 137.21582 z"
     id="path1004" />
  <path
     style="fill:#b3b3b3;stroke-width:1.05551"
     d="M 234.32241,758.94553 C 197.8138,752.11624 165.61183,737.57619 139.08236,715.94215 129.04595,707.75773 110.34755,687.97483 103.1589,677.93512 56.458549,612.71326 53.196209,526.32326 94.898307,459.18654 119.62276,419.38233 158.43296,388.54153 202.65722,373.55517 c 5.51502,-1.86889 10.42362,-3.74479 10.90801,-4.16869 0.48438,-0.42389 3.62155,-6.95055 6.97147,-14.50368 16.54497,-37.30425 37.49873,-68.10745 65.38485,-96.11936 51.8889,-52.12297 117.31112,-84.21462 190.11181,-93.25582 16.78403,-2.08443 61.76537,-1.74751 77.50325,0.58051 37.66061,5.57093 70.03187,15.69739 101.98543,31.90334 66.57858,33.7668 120.44322,91.37274 149.82869,160.23543 l 4.90438,11.49307 12.61698,4.39349 c 29.44159,10.25216 52.48692,24.48965 75.22869,46.47655 79.6008,76.95861 80.32251,203.03422 1.61282,281.7439 -30.52971,30.52971 -69.94159,50.36255 -112.83363,56.78013 -18.1899,2.7216 -17.69963,3.79656 -17.2342,-37.78697 0.23579,-21.06723 0.72453,-31.30113 1.53343,-32.10909 0.65303,-0.65227 6.95741,-2.56611 14.00972,-4.25297 36.00314,-8.6117 63.84823,-27.8602 80.75129,-55.82105 6.19627,-10.24977 12.55791,-24.89473 15.48298,-35.64293 2.84016,-10.43615 3.92257,-35.65723 2.11367,-49.25031 -4.28292,-32.1842 -24.47338,-65.38421 -51.26953,-84.30462 -14.40587,-10.17179 -26.32772,-14.96834 -59.77587,-24.04973 -6.75263,-1.8334 -13.55034,-4.12085 -15.10603,-5.08324 -2.29875,-1.42207 -4.76139,-6.59327 -13.14837,-27.60971 -11.09062,-27.79137 -15.34664,-36.84516 -23.49944,-49.9902 -13.32426,-21.48312 -35.0232,-45.92269 -55.24088,-62.21795 -35.32518,-28.47174 -76.08432,-45.92235 -121.38323,-51.96898 -15.21551,-2.03101 -45.35358,-2.29393 -60.16386,-0.52487 -61.00177,7.28657 -117.40242,37.30611 -157.39659,83.77515 -19.77098,22.97179 -33.22957,46.86138 -48.90756,86.81302 l -8.73007,22.2465 -20.7269,5.59919 c -33.12985,8.94971 -42.39779,12.91578 -58.9006,25.20558 -24.83201,18.4926 -43.13933,48.04671 -48.41185,78.15277 -1.59986,9.13522 -2.15918,34.9498 -0.75761,34.9671 0.43539,0.005 0.86763,3.26107 0.96052,7.23488 0.19342,8.27452 5.29692,24.90085 11.27372,36.72787 5.50346,10.89035 15.84905,24.76184 24.95933,33.46575 17.72198,16.93148 38.57381,27.70343 63.64075,32.8765 5.09804,1.05208 10.08531,2.50911 11.08282,3.23784 1.62805,1.18936 1.84752,4.43946 2.14448,31.75707 0.3619,33.29127 -0.16512,37.73571 -4.6782,39.45159 -3.21269,1.22145 -2.78768,1.25132 -15.17948,-1.0667 z"
     id="path1382" />
  <path
     style="fill:#b3b3b3;stroke-width:1.05551"
     d="M 234.32241,758.94553 C 198.57435,752.2585 166.3854,737.94474 140.9101,717.40704 129.72482,708.38968 112.79464,690.85414 104.58914,679.78739 51.865735,608.67934 52.893873,510.95252 107.0932,441.77068 c 25.02099,-31.93764 58.01976,-55.49281 95.56402,-68.21551 5.51502,-1.86889 10.42362,-3.74479 10.90801,-4.16869 0.48438,-0.42389 3.62155,-6.95055 6.97147,-14.50368 16.54497,-37.30425 37.49873,-68.10745 65.38485,-96.11936 51.8889,-52.12297 117.31112,-84.21462 190.11181,-93.25582 14.59842,-1.81299 60.64367,-1.78056 73.88544,0.052 39.08487,5.40918 72.28248,15.61157 105.60324,32.45431 65.99907,33.36075 120.02993,90.9292 149.38633,159.16716 l 5.40266,12.55832 12.58902,4.38375 c 29.41171,10.24175 52.46707,24.48774 75.20073,46.46681 79.25136,76.62076 80.36178,202.17869 2.48437,280.91318 -30.72378,31.06192 -70.52281,51.16371 -114.23293,57.69706 -17.57653,2.62715 -17.17006,3.5486 -16.70645,-37.87318 0.23579,-21.06723 0.72453,-31.30113 1.53343,-32.10909 0.65303,-0.65227 6.82774,-2.55465 13.72158,-4.22751 19.3788,-4.70247 34.98516,-11.64506 49.9948,-22.2405 24.18898,-17.07525 42.6705,-47.01504 48.07068,-77.87385 1.97994,-11.3142 1.97684,-31.74305 -0.006,-43.92912 -5.11107,-31.40074 -25.42994,-63.55491 -51.57574,-81.61749 -12.38756,-8.55783 -23.83974,-13.37496 -48.43909,-20.37495 -12.34885,-3.51399 -23.80869,-7.17705 -25.46632,-8.14015 -2.55757,-1.48596 -4.40179,-5.26686 -12.18085,-24.97223 -5.04184,-12.77162 -11.57289,-28.2084 -14.51343,-34.30395 -14.3525,-29.75097 -42.98717,-63.97449 -71.38813,-85.32114 -65.04733,-48.89066 -149.3516,-62.22039 -227.16653,-35.91833 -13.11043,4.43143 -39.43395,17.28667 -51.89913,25.34524 -14.27032,9.22557 -28.95583,21.0984 -41.23331,33.336 -26.95306,26.86554 -42.56922,52.32652 -61.41664,100.13524 l -8.78025,22.27216 -20.71945,5.55018 c -35.92567,9.62352 -51.12053,17.07021 -69.10788,33.8684 -20.12042,18.79026 -35.07282,46.71971 -38.60402,72.10806 -1.34221,9.65012 -1.53137,32.33691 -0.26962,32.33691 0.47998,0 0.67152,1.37073 0.42563,3.04608 -0.62051,4.22777 2.14349,16.86058 6.05067,27.65448 11.14266,30.78253 36.19486,57.40783 66.66936,70.85573 5.28706,2.3331 16.05129,5.83536 23.92053,7.7828 7.86923,1.94744 14.81976,4.05213 15.44561,4.6771 1.25322,1.2514 2.26032,58.07906 1.13704,64.15938 -0.7937,4.29633 -3.95938,7.62659 -7.12377,7.49414 -1.30619,-0.0547 -6.88718,-0.94349 -12.4022,-1.97513 z"
     id="path1421" />
  <path
     style="fill:#b3b3b3;stroke-width:1.05551"
     d="M 231.68364,758.459 C 207.11313,753.33117 192.81469,748.34075 172.04753,737.64492 154.53039,728.62296 141.81359,719.15632 125.464,702.96722 104.7944,682.50051 91.94895,664.09611 81.889629,640.5358 46.95041,558.70338 69.515864,466.74685 138.69954,409.02965 c 16.78227,-14.00079 42.5817,-28.29419 63.97988,-35.44615 l 10.85635,-3.62853 3.09141,-6.86079 c 20.53927,-45.58308 40.48482,-75.50283 70.02607,-105.04408 58.89247,-58.89247 134.11385,-91.61958 216.29552,-94.10527 53.73086,-1.62515 103.11227,9.31957 151.85902,33.6575 65.8617,32.88298 120.65713,91.1385 150.10058,159.5788 l 5.40266,12.55832 12.85421,4.47609 c 29.25277,10.18641 52.46975,24.54313 74.93554,46.33802 61.59942,59.75983 77.66982,150.99949 40.16827,228.05508 -28.82858,59.23496 -85.80073,100.70925 -151.91683,110.59161 -17.57653,2.62715 -17.17006,3.5486 -16.70645,-37.87318 0.23652,-21.13265 0.72334,-31.29994 1.53759,-32.11325 0.65532,-0.65456 6.72894,-2.55008 13.49694,-4.21226 19.53572,-4.79787 31.66558,-10.04054 47.58644,-20.56742 23.16042,-15.31367 41.30758,-41.89587 49.21176,-72.08601 2.74394,-10.48053 3.7823,-34.10685 2.07348,-47.17911 -3.5934,-27.48911 -16.04489,-51.72542 -37.41663,-72.82994 -18.31425,-18.08524 -28.92274,-23.6218 -64.87152,-33.85633 -11.42433,-3.25248 -22.1186,-6.70242 -23.76503,-7.66651 -2.52642,-1.4794 -4.46629,-5.4585 -12.4325,-25.50181 -11.96389,-30.1016 -17.6532,-41.71942 -28.17034,-57.52509 -19.9754,-30.02 -46.82233,-56.2475 -76.29837,-74.53797 -28.96752,-17.97492 -66.08317,-30.73707 -101.07861,-34.75568 -14.83591,-1.70364 -54.51312,-0.76901 -67.1799,1.58247 -52.33168,9.71496 -96.92696,32.81737 -133.33791,69.07515 -26.69212,26.57984 -42.96238,53.25089 -61.95167,101.55439 l -8.13694,20.69811 -14.92018,3.9713 c -43.56185,11.59482 -57.99089,18.7353 -77.78992,38.49575 -18.80819,18.77154 -32.39181,45.01679 -35.7333,69.04118 -1.29862,9.33676 -1.54795,32.33264 -0.35069,32.34525 0.43539,0.004 0.86651,2.9732 0.95803,6.59691 0.19647,7.77922 4.26378,22.22206 9.37094,33.27585 12.19873,26.40256 36.11258,49.85533 62.87948,61.66713 5.27699,2.32866 16.02056,5.81023 23.87459,7.73685 7.85402,1.92663 14.81278,4.03495 15.46391,4.68517 1.29675,1.29497 2.34042,57.93997 1.18296,64.20532 -0.83302,4.50917 -3.98783,7.61164 -7.65153,7.52456 -1.59645,-0.0379 -8.1274,-1.15938 -14.51321,-2.49208 z"
     id="path1460" />
  <path
     style="fill:#b3b3b3;stroke-width:1.05551"
     d="m 233.79465,758.92415 c -24.83578,-5.01439 -40.53428,-10.37893 -60.69161,-20.73972 -17.61999,-9.05661 -30.45583,-18.38565 -46.21847,-33.59145 -36.616801,-35.3232 -56.336782,-76.97766 -60.555477,-127.91115 -4.322532,-52.18714 12.876626,-103.0981 48.966827,-144.94596 21.69404,-25.155 55.06663,-47.36036 87.39763,-58.15237 l 10.87046,-3.62853 3.74053,-8.44405 c 8.25284,-18.63035 19.67821,-40.07531 28.47515,-53.44668 47.12075,-71.62365 122.73273,-122.56741 205.56478,-138.49978 24.15931,-4.64693 32.46214,-5.37958 61.10385,-5.39191 28.77076,-0.0124 37.47526,0.75001 61.0608,5.34805 101.83232,19.85242 189.96066,91.3371 231.42385,187.71785 l 5.42727,12.61562 12.00876,4.01565 c 44.77428,14.97217 84.7628,47.54537 109.06732,88.84227 25.87083,43.95828 33.5013,98.45901 20.7334,148.08844 -14.23624,55.33685 -51.36041,101.68026 -102.48712,127.93825 -20.82678,10.69635 -40.5795,17.07998 -63.33038,20.46693 -17.58471,2.61785 -17.16975,3.5621 -16.70645,-38.01606 0.31264,-28.05787 0.5237,-31.19044 2.18321,-32.40295 1.0104,-0.73826 5.76018,-2.18499 10.55506,-3.21496 26.59326,-5.71244 51.19622,-19.03749 68.47685,-37.08733 16.50427,-17.2389 29.60526,-44.27504 32.67385,-67.42807 1.71685,-12.95385 0.66978,-36.47022 -2.12884,-47.81171 -5.68642,-23.04458 -18.74456,-45.4803 -36.09825,-62.02188 -18.13236,-17.28381 -30.80533,-23.55593 -69.09653,-34.19737 -8.7705,-2.43739 -17.24782,-5.22595 -18.8385,-6.19679 -2.3779,-1.45132 -4.6282,-6.11669 -12.65629,-26.2393 -11.86518,-29.74043 -17.5678,-41.40659 -27.52581,-56.31106 -41.78249,-62.53721 -105.80299,-101.84395 -178.91056,-109.84591 -15.78481,-1.72772 -53.23713,-0.57835 -67.52414,2.07223 -51.38261,9.53271 -94.13372,31.77034 -130.71137,67.99146 -27.95614,27.68366 -42.38805,50.94016 -61.82197,99.62383 l -9.32298,23.35486 -18.50867,4.9513 c -30.16384,8.06923 -41.87104,12.73772 -56.63926,22.58611 -9.52129,6.34939 -24.09405,20.74759 -31.11566,30.74293 -11.46617,16.32223 -20.13124,37.40353 -22.21954,54.05807 -1.32452,10.5632 -1.43549,30.04404 -0.17558,30.82271 0.50267,0.31066 0.69079,1.73226 0.41803,3.1591 -1.28879,6.74184 6.34222,31.85941 13.63709,44.88665 7.54002,13.46503 19.07114,27.14602 30.81212,36.55673 16.25297,13.0272 31.25148,20.19342 53.82817,25.71887 6.89155,1.68666 13.06626,3.60207 13.72159,4.2565 1.30397,1.3022 2.35369,57.91706 1.19059,64.21295 -0.8346,4.51772 -3.99424,7.61667 -7.65153,7.50458 -1.59645,-0.049 -7.17744,-0.95206 -12.4022,-2.00695 z"
     id="path1536" />
</svg>
